<svg width="182" height="181" viewBox="0 0 182 181" fill="none" xmlns="http://www.w3.org/2000/svg">
<g opacity="0.5">
<path d="M118.988 179.891C159.855 179.891 192.984 146.762 192.984 105.894C192.984 65.0271 159.855 31.8976 118.988 31.8976C78.1203 31.8976 44.9907 65.0271 44.9907 105.894C44.9907 146.762 78.1203 179.891 118.988 179.891Z" fill="url(#paint0_radial_35_1703)"/>
</g>
<g opacity="0.5">
<path d="M74.3533 148.588C115.221 148.588 148.35 115.459 148.35 74.5914C148.35 33.724 115.221 0.594482 74.3533 0.594482C33.486 0.594482 0.356445 33.724 0.356445 74.5914C0.356445 115.459 33.486 148.588 74.3533 148.588Z" fill="url(#paint1_radial_35_1703)"/>
</g>
<path d="M57.0562 18.5664C53.2594 31.8132 64.8187 45.9882 60.6 59.1507C58.4062 65.9851 52.4156 70.8789 46.2562 74.3382C40.0125 77.882 33.2625 80.4976 27.6094 84.8851C22.3781 88.9351 18.3281 94.5039 16.725 100.916C15.1219 107.329 16.2187 114.416 20.2687 119.648C24.5719 125.301 31.575 128.001 37.8187 131.46C49.0406 137.619 58.575 146.648 69.7125 152.891C80.9344 159.135 95.1094 162.341 106.331 156.182C117.637 149.938 122.447 136.269 125.231 123.698C126.834 116.357 128.269 108.679 133.078 102.857C136.622 98.6382 141.684 95.9382 146.494 93.1539C152.569 89.6945 158.475 85.982 164.297 82.0163C172.312 76.532 180.159 70.3726 185.053 62.0195C189.862 53.6664 191.128 42.5289 185.728 34.4289C183.45 31.0539 180.159 28.2695 178.978 24.3882C177.966 21.0976 178.725 17.5539 178.809 14.0945C179.062 7.93511 177.459 1.69135 173.662 -3.11802C169.866 -7.92739 163.706 -10.9649 157.631 -10.4586C150.291 -9.86802 144.384 -4.63677 138.478 -0.333645C132.572 3.96948 124.809 7.5976 118.144 4.72886C83.4656 -10.2899 61.4437 3.12573 57.0562 18.5664Z" fill="#FB5656"/>
<path opacity="0.9" d="M90.131 21.3507C85.3217 24.5569 79.5842 25.8226 74.0154 27.0882C65.7467 28.9444 57.5623 30.8007 49.2935 32.6569C41.6998 34.3444 33.2623 36.6226 29.2123 43.2882C23.2217 53.0757 29.381 68.0944 21.0279 76.0257C19.0029 77.9663 16.3873 79.0632 14.1092 80.7507C9.38416 84.2944 6.68416 90.3694 7.27478 96.2757C7.78103 102.182 11.4935 107.666 16.8092 110.282C28.2842 116.104 44.3154 108.679 54.1029 116.948C58.4904 120.66 60.2623 126.735 60.5998 132.473C60.9373 138.21 60.1779 144.032 60.5154 149.769C60.8529 155.929 63.0467 162.594 68.4467 165.548C75.281 169.26 83.8029 165.126 89.2029 159.641C94.6029 154.157 98.6529 147.154 105.15 142.851C110.719 139.223 117.469 138.041 124.05 136.776C130.462 135.51 136.79 134.076 143.119 132.473C149.109 130.954 155.269 129.182 160.162 125.385C167.925 119.31 171.131 109.185 173.24 99.5663C174.422 94.2507 175.434 88.6819 178.725 84.2944C180.75 81.5944 183.619 79.5694 186.234 77.4601C192.394 72.3976 197.878 66.0694 200.409 58.4757C202.94 50.8819 201.928 41.8538 196.528 35.9476C191.55 30.5476 183.956 28.6069 177.712 24.7257C170.878 20.5069 165.731 14.0101 159.909 8.44131C151.64 0.510059 141.347 -5.73369 129.956 -7.08369C120.337 -8.18057 109.79 -5.31182 102.872 1.69131C97.2185 7.59756 97.6404 16.3726 90.131 21.3507Z" fill="#44B099"/>
<path d="M89.7184 138.235C90.8072 140.11 93.4407 141.173 97.4209 141.083C101.5 141.164 105.95 140.264 110.662 138.425C115.374 136.587 118.923 134.366 121.528 131.677C124.024 129.031 124.777 126.856 123.688 124.981C122.599 123.107 119.966 122.044 115.886 121.963C111.807 121.882 107.357 122.782 102.645 124.62C97.9331 126.459 94.3841 128.68 91.779 131.368C89.2835 134.015 88.5306 136.19 89.7184 138.235ZM100.45 136.347C97.9828 136.265 96.4027 135.627 95.8088 134.604C95.116 133.411 95.5083 132.004 96.9858 130.382C98.4633 128.761 100.676 127.479 103.525 126.367C106.374 125.256 108.983 124.656 111.45 124.739C113.918 124.821 115.498 125.459 116.191 126.652C116.883 127.845 116.392 129.082 114.915 130.704C113.437 132.326 111.224 133.607 108.375 134.719C105.636 135.788 103.027 136.387 100.45 136.347Z" fill="url(#paint2_linear_35_1703)"/>
<path d="M82.8844 132.432C78.8232 137.054 77.8068 141.139 79.8489 144.472C81.8772 148.019 86.3816 149.846 93.2477 150.061C100.107 150.384 107.393 149.094 115.227 145.977C122.946 142.967 128.887 139.204 132.948 134.582C137.002 130.067 138.119 126.089 135.983 122.542C133.948 119.102 129.551 117.274 122.584 116.952C115.725 116.629 108.439 117.919 100.613 120.929C92.8861 124.047 86.9386 127.917 82.8844 132.432ZM95.6792 144.042C90.5261 143.934 87.277 142.644 85.9248 140.279C84.4721 137.807 85.3046 134.904 88.4224 131.572C91.5402 128.239 96.0208 125.444 101.864 123.187C107.707 120.929 113.259 119.854 118.305 119.962C123.351 120.069 126.6 121.359 128.052 123.832C129.405 126.197 128.572 129.099 125.562 132.432C122.444 135.764 117.956 138.667 112.113 140.924C106.277 143.074 100.725 144.149 95.6792 144.042Z" fill="url(#paint3_linear_35_1703)"/>
<path d="M73.1499 77.0444H71.3499L70.6499 84.8444C71.4499 85.0444 72.1499 85.1444 72.9499 85.0444C73.4499 84.9444 73.9499 84.8444 74.4499 84.6444L73.1499 77.0444Z" fill="#6DE8F3"/>
<path d="M72.8498 76.3444L72.9498 77.0444L74.2498 84.5444L74.3498 85.2444C76.5498 84.2444 79.4498 81.9444 82.8498 78.3444L80.3498 70.6444L72.8498 76.3444ZM65.0498 60.1444C64.8498 60.3444 64.6498 60.8444 64.4498 61.7444C64.2498 62.3444 64.1498 62.7444 64.0498 63.1444C64.0498 63.2444 64.0498 63.2444 64.0498 63.3444C63.9498 63.4444 63.7498 63.5444 63.6498 63.6444C62.7498 59.9444 61.7498 58.0444 60.9498 57.9444C60.0498 57.8444 59.5498 58.0444 59.4498 58.7444C59.3498 59.4444 59.4498 60.0444 59.5498 60.6444C59.6498 61.1444 59.9498 62.0444 60.4498 63.0444C59.8498 62.1444 59.3498 61.5444 59.1498 61.2444C58.2498 60.1444 57.4498 59.5444 56.9498 59.5444C56.5498 59.5444 56.3498 59.8444 56.3498 60.4444C56.3498 61.0444 56.5498 61.7444 57.0498 62.7444C57.1498 62.9444 57.4498 63.5444 57.8498 64.4444C56.7498 63.7444 56.0498 63.2444 55.7498 63.1444C55.2498 62.8444 54.8498 62.7444 54.6498 62.7444C53.9498 62.7444 53.6498 63.0444 53.5498 63.5444C53.5498 64.0444 53.6498 64.6444 54.0498 65.0444C54.3498 65.5444 55.5498 66.1444 57.6498 67.1444C57.5498 68.2444 57.7498 69.0444 58.1498 69.7444C58.4498 70.3444 59.2498 70.3444 60.5498 69.9444C61.6498 74.2444 63.4498 78.0444 65.9498 81.3444C67.6498 83.5444 69.3498 84.9444 71.0498 85.5444L71.1498 84.8444L71.8498 77.0444L71.9498 76.1444C69.1498 73.9444 66.9498 71.0444 65.3498 67.5444C66.1498 67.0444 66.6498 66.6444 66.9498 66.2444C67.2498 65.8444 67.4498 65.4444 67.4498 65.0444C67.4498 64.9444 67.3498 64.7444 67.1498 64.4444C66.9498 64.1444 66.8498 63.8444 66.8498 63.5444C66.8498 63.2444 66.9498 62.7444 67.2498 62.1444C67.5498 61.4444 67.6498 60.9444 67.6498 60.5444C67.6498 60.1444 67.5498 59.8444 67.3498 59.8444C67.2498 59.8444 66.9498 59.8444 66.4498 59.8444C65.5498 59.8444 65.2498 59.9444 65.0498 60.1444Z" fill="url(#paint4_linear_35_1703)"/>
<path d="M120.55 73.6444C121.95 73.5444 123.35 73.6444 124.65 73.4444C129.65 72.8444 131.75 71.5444 131.95 70.7444C131.95 70.6444 131.95 70.6444 131.95 70.6444C131.95 69.7444 129.35 69.0444 124.05 68.4444C118.75 67.8444 112.35 67.5444 104.95 67.5444C97.4496 67.5444 91.0496 67.8444 85.7496 68.4444C80.4496 69.0444 77.8496 69.8444 77.8496 70.6444V70.7444C78.0496 71.5444 80.3496 73.0444 85.3496 73.6444C90.6496 74.2444 97.3496 74.4444 104.85 74.4444C110.65 74.4444 116.15 73.9444 120.55 73.6444ZM119.85 70.3444C119.75 70.8444 118.25 71.2444 115.45 71.5444C112.55 71.8444 108.95 72.0444 104.85 72.0444C100.75 72.0444 97.1496 71.8444 94.2496 71.5444C91.4496 71.2444 90.0496 70.8444 89.9496 70.3444C89.9496 69.8444 91.4496 69.4444 94.3496 69.1444C97.2496 68.8444 100.75 68.6444 104.95 68.6444C109.05 68.6444 112.55 68.8444 115.55 69.1444C118.45 69.4444 119.85 69.8444 119.85 70.3444Z" fill="#CBEBF1"/>
<path d="M121.25 70.3445C121.25 69.7445 119.65 69.3445 116.45 68.9445C113.25 68.5445 109.35 68.3445 104.85 68.3445C100.35 68.3445 96.4497 68.5445 93.2497 68.9445C90.0497 69.3445 88.4497 69.7445 88.4497 70.3445C88.5497 70.8445 90.1497 71.2445 93.1497 71.6445C96.3497 72.0445 100.15 72.2445 104.75 72.2445C109.25 72.2445 113.05 72.0445 116.35 71.6445C119.55 71.2445 121.05 70.8445 121.25 70.3445Z" fill="url(#paint5_linear_35_1703)"/>
<path d="M119.85 77.6444C120.35 75.7444 119.35 74.3444 120.15 73.1444C115.75 73.5444 110.65 73.7444 104.85 73.7444C97.3498 73.7444 90.9498 73.4444 85.6498 72.8444C80.6498 72.2444 78.0498 71.5444 77.8498 70.7444C77.5498 92.8444 83.1498 112.244 94.5498 128.844C98.4498 130.044 103.15 131.744 106.55 130.144C109.95 128.544 112.25 126.144 113.25 124.344C116.75 120.444 119.45 114.544 120.55 109.044C121.65 103.544 121.55 97.4444 120.55 90.6444C119.55 83.8444 119.45 79.5444 119.85 77.6444Z" fill="url(#paint6_linear_35_1703)"/>
<path d="M120.15 73.2444C119.25 74.3444 118.65 75.8444 118.15 77.7444C117.65 79.6444 117.95 83.9444 119.05 90.7444C120.05 97.5444 120.05 103.744 118.85 109.144C117.75 114.644 115.45 119.244 111.95 123.144C110.95 124.944 108.85 126.744 105.45 128.344C102.05 129.944 98.4499 130.144 94.6499 128.944C95.9499 130.844 97.4499 132.744 98.8499 134.644C103.85 135.444 109.05 133.744 114.25 129.444C126.25 113.344 132.15 93.7444 131.95 70.7444C131.65 71.5444 129.05 72.2444 124.05 72.8444C122.85 72.9444 121.55 73.1444 120.15 73.2444Z" fill="#CBEBF1"/>
<path d="M114.7 153.294C89.8998 161.994 66.6998 160.094 62.7998 148.994C58.8998 137.894 75.7998 121.894 100.6 113.094C125.4 104.394 148.6 106.294 152.5 117.394C156.4 128.494 139.5 144.594 114.7 153.294Z" fill="url(#paint7_radial_35_1703)"/>
<path d="M133.05 93.6444C132.85 93.6444 132.65 93.6444 132.45 93.6444C130.85 93.7444 129.35 93.9444 127.95 94.6444C127.15 95.0444 126.55 95.7444 126.15 96.2444C126.15 96.3444 126.05 96.3444 126.05 96.4444C125.95 96.5444 125.85 96.6444 125.85 96.7444C125.75 96.8444 125.75 96.9444 125.65 97.0444C126.05 98.8444 126.35 100.544 126.65 101.944C127.45 105.644 127.95 108.144 128.35 109.644C127.45 110.544 126.85 111.144 126.55 111.544C125.85 112.144 125.55 112.644 125.55 113.044C125.55 113.544 126.15 113.844 127.25 113.844C127.85 113.844 128.45 113.644 129.05 113.244C129.45 112.944 129.65 112.644 129.85 112.344C130.35 113.644 130.85 114.744 131.55 115.644C132.25 116.744 132.85 117.244 133.45 117.244C133.85 117.244 134.15 117.044 134.45 116.644C134.65 116.344 134.75 116.044 134.75 115.844C134.75 115.544 134.45 114.644 133.75 113.144C133.25 112.044 132.95 111.344 132.85 111.044C134.25 112.944 135.05 113.944 135.25 114.144C135.95 114.944 136.55 115.344 136.95 115.344C137.25 115.344 137.65 115.144 138.05 114.844C138.45 114.544 138.65 114.144 138.65 113.944C138.65 113.644 137.65 112.444 135.75 110.544C136.35 110.844 137.35 111.244 138.75 111.744C139.65 112.144 140.35 112.344 140.65 112.344C140.95 112.344 141.25 112.144 141.45 111.744C141.55 111.444 141.65 111.044 141.65 110.544C141.65 110.044 140.85 109.544 139.25 108.844C137.65 108.144 136.65 107.744 136.15 107.644C135.75 105.744 135.35 103.844 134.95 101.944C134.25 99.0444 133.65 96.2444 133.05 93.6444ZM127.45 78.4444C126.85 78.1444 125.85 78.3444 124.55 78.7444C123.25 79.2444 122.65 80.3444 122.85 82.1444C122.95 82.8444 123.05 83.9444 123.35 85.4444C123.35 85.6444 123.45 85.9444 123.45 86.1444C123.85 88.3444 124.45 91.4444 125.25 95.2444C125.35 95.0444 125.55 94.8444 125.85 94.6444C126.25 94.2444 127.05 94.1444 127.65 93.8444C129.15 93.0444 130.45 92.3444 132.15 92.3444C132.35 92.3444 132.55 92.3444 132.75 92.3444C132.65 91.7444 132.45 91.1444 132.35 90.6444C131.35 86.4444 130.55 83.5444 130.05 82.0444C129.95 81.7444 129.85 81.4444 129.75 81.2444C129.25 80.1444 128.75 79.3444 128.35 78.9444C128.05 78.7444 127.75 78.5444 127.45 78.4444Z" fill="url(#paint8_linear_35_1703)"/>
<path d="M132.45 93.6444C132.35 93.1444 132.25 92.7444 132.15 92.4444C130.45 92.5444 128.95 92.9444 127.45 93.7444C126.75 94.0444 126.25 94.4444 125.85 94.8444C125.95 95.3444 125.95 95.8444 126.15 96.3444C126.55 95.9444 127.15 95.4444 127.95 95.0444C129.35 94.2444 130.85 93.7444 132.45 93.6444ZM122.85 76.7444C121.35 77.7444 120.55 79.1444 120.55 80.9444C120.55 82.7444 121.35 84.1444 122.85 85.2444C123.05 85.3444 123.15 85.4444 123.35 85.5444C123.05 84.0444 122.95 82.9444 122.85 82.2444C122.65 80.4444 123.25 79.2444 124.55 78.8444C125.85 78.3444 126.85 78.2444 127.45 78.5444C127.75 78.6444 128.05 78.8444 128.35 79.0444C128.75 79.4444 129.25 80.2444 129.75 81.3444C129.85 81.5444 129.95 81.8444 130.05 82.1444C130.25 79.3444 129.95 77.6444 129.15 76.8444C128.25 76.0444 127.45 75.6444 126.55 75.6444C125.25 75.6444 124.05 76.0444 122.85 76.7444Z" fill="#6DE8F3"/>
<path d="M134.5 70.3944C134.5 74.0944 121.3 76.9944 105 76.9944C88.7 76.9944 75.5 73.9944 75.5 70.3944C75.5 66.6944 88.7 63.7944 105 63.7944C121.2 63.7944 134.5 66.6944 134.5 70.3944Z" fill="url(#paint9_radial_35_1703)"/>
<path d="M126.55 61.1444C126.85 58.8444 125.45 56.2444 123.25 53.7444C121.05 51.2444 121.65 48.3444 121.65 44.5444C121.65 40.7444 120.75 38.3444 122.45 36.1444C124.05 33.8444 126.65 32.3444 132.35 31.3444L136.75 30.4444C135.15 28.0444 133.25 25.7444 130.75 23.6444C123.85 17.6444 115.65 14.6444 105.85 14.6444C96.1496 14.6444 87.8496 17.6444 80.9496 23.6444C77.2496 26.8444 74.6496 30.3444 72.8496 34.2444C71.3496 37.6444 69.8496 41.4444 69.8496 45.4444C69.8496 49.8444 71.3496 53.4444 73.1496 56.5444C74.7496 59.4444 77.1496 61.9444 80.3496 63.7444C86.8496 67.6444 95.2496 69.4444 105.55 69.2444C107.05 69.2444 108.45 69.1444 109.75 69.0444H109.85C110.35 68.9444 113.95 68.9444 118.55 67.4444C123.25 66.0444 126.25 63.4444 126.55 61.1444Z" fill="url(#paint10_linear_35_1703)"/>
<path d="M141.05 45.2445C141.05 39.7445 139.65 34.8445 136.75 30.4445H132.35C126.65 31.5445 123.05 33.2445 121.35 35.4445C119.75 37.7445 118.95 40.7445 118.95 44.6445C118.95 48.4445 120.05 51.6445 122.25 54.0445C124.45 56.5445 125.35 58.9445 125.05 61.1445C124.75 63.4445 122.25 65.2445 117.65 66.7445C113.05 68.2445 110.45 69.0445 109.95 69.0445C118.35 68.4445 125.35 66.5445 131.05 63.3445C137.65 59.7445 141.05 53.7445 141.05 45.2445Z" fill="#CBEBF1"/>
<path d="M65.9496 43.5444C65.4496 43.9444 65.1496 44.3444 64.9496 44.7444C64.5496 45.4444 64.3496 46.5444 64.3496 47.9444C64.3496 50.1444 64.8496 51.5444 65.7496 52.2444C65.9496 52.3444 66.3496 52.5444 66.7496 52.6444C65.9496 51.0444 65.5496 49.2444 65.5496 47.3444C65.6496 45.9444 65.7496 44.7444 65.9496 43.5444Z" fill="#3EB8F3"/>
<path d="M72.9498 34.2444C70.7498 34.6444 68.9498 35.9444 67.6498 38.1444C66.7498 39.6444 66.1498 41.4444 65.8498 43.5444C65.6498 44.7444 65.5498 45.9444 65.5498 47.3444C65.5498 49.2444 65.9498 51.0444 66.7498 52.6444C66.8498 52.9444 67.0498 53.2444 67.2498 53.5444C68.4498 55.6444 70.0498 56.6444 72.0498 56.6444C72.3498 56.6444 72.7498 56.6444 73.2498 56.5444C71.5498 53.4444 70.6498 49.6444 70.6498 45.2444C70.6498 41.3444 71.4498 37.6444 72.9498 34.2444Z" fill="#DBDBDB"/>
<path d="M141.15 36.1444C141.05 36.1444 141.05 36.1444 141.15 36.1444C140.75 36.2444 140.45 36.2444 140.15 36.3444C138.85 36.6444 137.65 37.5444 136.65 38.7444C135.25 40.5444 134.55 42.6444 134.55 45.1444C134.55 47.6444 135.25 49.7444 136.65 51.4444C137.65 52.7444 138.85 53.5444 140.15 53.8444C140.55 53.9444 140.85 54.0444 141.25 54.0444C141.35 54.0444 141.55 54.0444 141.65 54.0444C142.85 54.0444 143.95 53.7444 144.95 53.0444C145.55 52.6444 146.15 52.1444 146.65 51.4444C148.05 49.6444 148.75 47.5444 148.75 45.1444C148.75 42.6444 148.05 40.5444 146.65 38.7444C146.15 38.0444 145.55 37.5444 144.85 37.0444C143.85 36.3444 142.75 36.0444 141.55 36.0444C141.45 36.1444 141.35 36.1444 141.15 36.1444Z" fill="url(#paint11_linear_35_1703)"/>
<path d="M144.149 36.0444C142.149 33.5444 139.749 32.2444 136.949 32.2444C136.649 32.2444 136.449 32.2444 136.149 32.2444C135.649 32.2444 135.149 32.3444 134.749 32.4444C132.849 32.9444 131.149 34.1444 129.649 35.9444C127.649 38.4444 126.649 41.5444 126.649 45.1444C126.649 48.7444 127.649 51.7444 129.649 54.2444C131.149 56.1444 132.849 57.2444 134.749 57.7444C135.249 57.9444 135.749 57.9444 136.349 58.0444C136.549 58.0444 136.749 58.0444 136.949 58.0444C139.749 58.0444 142.149 56.7444 144.149 54.2444C144.449 53.8444 144.749 53.4444 144.949 53.0444C143.949 53.7444 142.849 54.0444 141.649 54.0444C141.549 54.0444 141.349 54.0444 141.249 54.0444C137.449 53.9444 134.849 53.0444 133.549 51.3444C132.749 50.2444 132.149 49.1444 131.849 47.7444C131.649 46.8444 131.549 45.9444 131.549 44.9444C131.549 43.9444 131.649 43.0444 131.849 42.1444C132.149 40.8444 132.749 39.6444 133.549 38.5444C134.749 36.9444 137.249 36.1444 141.049 35.9444H141.149C141.349 35.9444 141.549 35.9444 141.749 35.9444C142.949 35.9444 144.049 36.2444 145.049 36.9444C144.649 36.7444 144.449 36.3444 144.149 36.0444Z" fill="#F0F0F0"/>
<path d="M140.15 36.3444C140.45 36.2444 140.75 36.2444 141.05 36.2444C137.35 36.3444 134.85 37.2444 133.55 38.8444C132.75 39.9444 132.15 41.1444 131.85 42.4444C131.65 43.3444 131.55 44.2444 131.55 45.2444C131.55 46.2444 131.65 47.1444 131.85 48.0444C132.15 49.3444 132.75 50.5444 133.55 51.6444C134.85 53.3444 137.45 54.1444 141.25 54.3444C140.85 54.2444 140.55 54.2444 140.15 54.1444C138.85 53.8444 137.65 52.9444 136.65 51.7444C135.25 49.9444 134.55 47.8444 134.55 45.4444C134.55 42.9444 135.25 40.8444 136.65 39.0444C137.65 37.5444 138.85 36.6444 140.15 36.3444Z" fill="#3EB8F3"/>
<path d="M136.15 32.2444C130.75 32.5444 127.15 33.7444 125.35 36.0444C123.35 38.5444 122.35 41.6444 122.35 45.2444C122.35 48.8444 123.35 51.8444 125.35 54.3444C127.25 56.7444 130.95 58.0444 136.35 58.1444C135.85 58.1444 135.25 58.0444 134.75 57.8444C132.85 57.3444 131.15 56.1444 129.65 54.3444C127.65 51.8444 126.65 48.7444 126.65 45.2444C126.65 41.6444 127.65 38.6444 129.65 36.0444C131.15 34.2444 132.85 33.0444 134.75 32.5444C135.25 32.3444 135.65 32.3444 136.15 32.2444Z" fill="#DBDBDB"/>
<path d="M100.55 51.6444C100.15 51.6444 99.7495 51.6444 99.2495 51.6444C96.8495 51.6444 94.3495 51.8444 91.7495 52.0444C92.6495 57.8444 94.2495 60.7444 96.5495 60.7444C97.6495 60.7444 98.4495 59.7444 99.1495 57.7444C99.3495 56.9444 99.8495 54.9444 100.55 51.6444Z" fill="url(#paint12_linear_35_1703)"/>
<path d="M114.05 42.9444C114.65 42.4444 114.95 41.7444 114.95 40.9444C114.95 40.1444 114.65 39.4444 114.05 38.8444C113.55 38.3444 112.85 38.0444 112.05 38.0444C111.25 38.0444 110.55 38.3444 109.95 38.8444C109.45 39.4444 109.15 40.1444 109.15 40.9444C109.15 41.7444 109.45 42.4444 109.95 42.9444C110.55 43.5444 111.25 43.8444 112.05 43.8444C112.75 43.8444 113.45 43.5444 114.05 42.9444ZM82.7496 42.9444C83.3496 42.4444 83.6496 41.7444 83.6496 40.9444C83.6496 40.1444 83.3496 39.4444 82.7496 38.8444C82.2496 38.3444 81.5496 38.0444 80.7496 38.0444C79.9496 38.0444 79.2496 38.3444 78.6496 38.8444C78.1496 39.4444 77.8496 40.1444 77.8496 40.9444C77.8496 41.7444 78.1496 42.4444 78.6496 42.9444C79.2496 43.5444 79.9496 43.8444 80.7496 43.8444C81.4496 43.8444 82.1496 43.5444 82.7496 42.9444Z" fill="url(#paint13_linear_35_1703)"/>
<path d="M117.1 38.8944C117.1 42.5944 114.4 45.4944 111 45.4944C107.6 45.4944 104.9 42.4944 104.9 38.8944C104.9 35.1944 107.6 32.2944 111 32.2944C114.4 32.2944 117.1 35.2944 117.1 38.8944Z" fill="url(#paint14_radial_35_1703)"/>
<path d="M86.0999 38.8944C86.0999 42.5944 83.3999 45.4944 79.9999 45.4944C76.5999 45.4944 73.8999 42.4944 73.8999 38.8944C73.8999 35.1944 76.5999 32.2944 79.9999 32.2944C83.3999 32.2944 86.0999 35.2944 86.0999 38.8944Z" fill="url(#paint15_radial_35_1703)"/>
<defs>
<radialGradient id="paint0_radial_35_1703" cx="0" cy="0" r="1" gradientUnits="userSpaceOnUse" gradientTransform="translate(119.006 105.889) scale(73.9758)">
<stop offset="0.5549" stop-color="#44B099"/>
<stop offset="1" stop-color="white"/>
</radialGradient>
<radialGradient id="paint1_radial_35_1703" cx="0" cy="0" r="1" gradientUnits="userSpaceOnUse" gradientTransform="translate(74.3629 74.5536) scale(73.9758 73.9758)">
<stop offset="0.5549" stop-color="#44B099"/>
<stop offset="1" stop-color="white"/>
</radialGradient>
<linearGradient id="paint2_linear_35_1703" x1="126.785" y1="112.644" x2="99.671" y2="154.541" gradientUnits="userSpaceOnUse">
<stop stop-color="white"/>
<stop offset="1" stop-color="#D4E6EE"/>
</linearGradient>
<linearGradient id="paint3_linear_35_1703" x1="128.372" y1="114.334" x2="96.4121" y2="142.177" gradientUnits="userSpaceOnUse">
<stop stop-color="white"/>
<stop offset="1" stop-color="#D4E6EE"/>
</linearGradient>
<linearGradient id="paint4_linear_35_1703" x1="59.898" y1="75.2081" x2="79.2878" y2="65.4274" gradientUnits="userSpaceOnUse">
<stop stop-color="white"/>
<stop offset="1" stop-color="#D4E6EE"/>
</linearGradient>
<linearGradient id="paint5_linear_35_1703" x1="104.919" y1="65.8557" x2="104.919" y2="77.1457" gradientUnits="userSpaceOnUse">
<stop offset="0.2021" stop-color="#6DE8F3"/>
<stop offset="1" stop-color="#367EF3"/>
</linearGradient>
<linearGradient id="paint6_linear_35_1703" x1="96.0136" y1="87.5234" x2="123.079" y2="119.692" gradientUnits="userSpaceOnUse">
<stop stop-color="white"/>
<stop offset="1" stop-color="#D4E6EE"/>
</linearGradient>
<radialGradient id="paint7_radial_35_1703" cx="0" cy="0" r="1" gradientUnits="userSpaceOnUse" gradientTransform="translate(107.672 133.204) rotate(70.6215) scale(22.6866 38.5547)">
<stop offset="0.2021" stop-color="#6DE8F3"/>
<stop offset="1" stop-color="#52D3F3" stop-opacity="0"/>
</radialGradient>
<linearGradient id="paint8_linear_35_1703" x1="127.196" y1="106.429" x2="137.32" y2="85.1514" gradientUnits="userSpaceOnUse">
<stop stop-color="white"/>
<stop offset="1" stop-color="#D4E6EE"/>
</linearGradient>
<radialGradient id="paint9_radial_35_1703" cx="0" cy="0" r="1" gradientUnits="userSpaceOnUse" gradientTransform="translate(104.92 70.3936) scale(31.4833 5.38364)">
<stop offset="0.2021" stop-color="#6DE8F3"/>
<stop offset="1" stop-color="#52D3F3" stop-opacity="0"/>
</radialGradient>
<linearGradient id="paint10_linear_35_1703" x1="95.6867" y1="39.0778" x2="133.194" y2="53.2225" gradientUnits="userSpaceOnUse">
<stop stop-color="white"/>
<stop offset="1" stop-color="#D4E6EE"/>
</linearGradient>
<linearGradient id="paint11_linear_35_1703" x1="137.869" y1="32.5873" x2="143.436" y2="51.1466" gradientUnits="userSpaceOnUse">
<stop offset="0.2021" stop-color="#6DE8F3"/>
<stop offset="1" stop-color="#52D3F3"/>
</linearGradient>
<linearGradient id="paint12_linear_35_1703" x1="92.9739" y1="47.285" x2="106.355" y2="73.0561" gradientUnits="userSpaceOnUse">
<stop offset="0.2021" stop-color="#6DE8F3"/>
<stop offset="1" stop-color="#367EF3"/>
</linearGradient>
<linearGradient id="paint13_linear_35_1703" x1="94.7842" y1="34.8088" x2="101.888" y2="62.7262" gradientUnits="userSpaceOnUse">
<stop offset="0.2021" stop-color="#6DE8F3"/>
<stop offset="1" stop-color="#367EF3"/>
</linearGradient>
<radialGradient id="paint14_radial_35_1703" cx="0" cy="0" r="1" gradientUnits="userSpaceOnUse" gradientTransform="translate(111.028 38.9156) scale(6.5093 5.38245)">
<stop offset="0.2021" stop-color="#6DE8F3"/>
<stop offset="1" stop-color="#52D3F3" stop-opacity="0"/>
</radialGradient>
<radialGradient id="paint15_radial_35_1703" cx="0" cy="0" r="1" gradientUnits="userSpaceOnUse" gradientTransform="translate(80.0181 38.9156) scale(6.50975 5.38282)">
<stop offset="0.2021" stop-color="#6DE8F3"/>
<stop offset="1" stop-color="#52D3F3" stop-opacity="0"/>
</radialGradient>
</defs>
</svg>
