<svg width="171" height="181" viewBox="0 0 171 181" fill="none" xmlns="http://www.w3.org/2000/svg">
<g opacity="0.5">
<path d="M118.988 179.891C159.855 179.891 192.984 146.762 192.984 105.894C192.984 65.0271 159.855 31.8976 118.988 31.8976C78.1203 31.8976 44.9907 65.0271 44.9907 105.894C44.9907 146.762 78.1203 179.891 118.988 179.891Z" fill="url(#paint0_radial_35_1680)"/>
</g>
<g opacity="0.5">
<path d="M74.3533 148.588C115.221 148.588 148.35 115.459 148.35 74.5914C148.35 33.724 115.221 0.594482 74.3533 0.594482C33.486 0.594482 0.356445 33.724 0.356445 74.5914C0.356445 115.459 33.486 148.588 74.3533 148.588Z" fill="url(#paint1_radial_35_1680)"/>
</g>
<path d="M57.0562 18.5664C53.2594 31.8132 64.8187 45.9882 60.6 59.1507C58.4062 65.9851 52.4156 70.8789 46.2562 74.3382C40.0125 77.882 33.2625 80.4976 27.6094 84.8851C22.3781 88.9351 18.3281 94.5039 16.725 100.916C15.1219 107.329 16.2187 114.416 20.2687 119.648C24.5719 125.301 31.575 128.001 37.8187 131.46C49.0406 137.619 58.575 146.648 69.7125 152.891C80.9344 159.135 95.1094 162.341 106.331 156.182C117.637 149.938 122.447 136.269 125.231 123.698C126.834 116.357 128.269 108.679 133.078 102.857C136.622 98.6382 141.684 95.9382 146.494 93.1539C152.569 89.6945 158.475 85.982 164.297 82.0163C172.312 76.532 180.159 70.3726 185.053 62.0195C189.862 53.6664 191.128 42.5289 185.728 34.4289C183.45 31.0539 180.159 28.2695 178.978 24.3882C177.966 21.0976 178.725 17.5539 178.809 14.0945C179.062 7.93511 177.459 1.69135 173.662 -3.11802C169.866 -7.92739 163.706 -10.9649 157.631 -10.4586C150.291 -9.86802 144.384 -4.63677 138.478 -0.333645C132.572 3.96948 124.809 7.5976 118.144 4.72886C83.4656 -10.2899 61.4437 3.12573 57.0562 18.5664Z" fill="#FB5656"/>
<path opacity="0.9" d="M90.131 21.3507C85.3217 24.5569 79.5842 25.8226 74.0154 27.0882C65.7467 28.9444 57.5623 30.8007 49.2935 32.6569C41.6998 34.3444 33.2623 36.6226 29.2123 43.2882C23.2217 53.0757 29.381 68.0944 21.0279 76.0257C19.0029 77.9663 16.3873 79.0632 14.1092 80.7507C9.38416 84.2944 6.68416 90.3694 7.27478 96.2757C7.78103 102.182 11.4935 107.666 16.8092 110.282C28.2842 116.104 44.3154 108.679 54.1029 116.948C58.4904 120.66 60.2623 126.735 60.5998 132.473C60.9373 138.21 60.1779 144.032 60.5154 149.769C60.8529 155.929 63.0467 162.594 68.4467 165.548C75.281 169.26 83.8029 165.126 89.2029 159.641C94.6029 154.157 98.6529 147.154 105.15 142.851C110.719 139.223 117.469 138.041 124.05 136.776C130.462 135.51 136.79 134.076 143.119 132.473C149.109 130.954 155.269 129.182 160.162 125.385C167.925 119.31 171.131 109.185 173.24 99.5663C174.422 94.2507 175.434 88.6819 178.725 84.2944C180.75 81.5944 183.619 79.5694 186.234 77.4601C192.394 72.3976 197.878 66.0694 200.409 58.4757C202.94 50.8819 201.928 41.8538 196.528 35.9476C191.55 30.5476 183.956 28.6069 177.712 24.7257C170.878 20.5069 165.731 14.0101 159.909 8.44131C151.64 0.510059 141.347 -5.73369 129.956 -7.08369C120.337 -8.18057 109.79 -5.31182 102.872 1.69131C97.2185 7.59756 97.6404 16.3726 90.131 21.3507Z" fill="#44B099"/>
<g clip-path="url(#clip0_35_1680)">
<path d="M177.337 91.9148C172.769 79.8874 172.769 79.8874 161.047 49.2782C156.142 35.9951 141.678 28.3791 127.672 32.132C122.166 33.6073 117.583 36.5952 114.084 40.5352C105.712 47.5408 97.2117 49.8184 86.4584 47.9374C81.4578 46.275 75.8984 46.0047 70.4892 47.4541C56.4833 51.207 47.765 65.0346 50.1587 78.9906C55.312 111.36 55.3379 111.456 57.3692 124.06C57.3762 124.472 57.4797 124.859 57.5832 125.245C59.1361 131.041 65.1374 134.505 70.9329 132.953C73.7341 132.202 75.9608 130.467 77.4009 128.114C82.1455 120.32 83.6114 118.064 90.2014 107.498C106.473 97.1335 121.445 93.1218 140.719 93.9619C151.735 99.9136 154.036 101.161 162.113 105.415C164.51 106.636 167.332 107.122 170.134 106.372C175.929 104.819 179.394 98.8177 177.841 93.0221C177.641 92.6616 177.537 92.2752 177.337 91.9148Z" fill="white"/>
<path d="M90.9614 80.5844C93.9507 80.9222 96.7676 82.5485 98.5807 85.065L92.592 86.6697L90.9614 80.5844Z" fill="#BDBDBD"/>
<path d="M58.9071 74.1618C57.38 68.4628 60.7034 62.7065 66.4024 61.1795C72.1014 59.6525 77.8577 62.9759 79.3847 68.6748C80.9117 74.3738 77.5883 80.1301 71.8894 81.6571C66.1904 83.1842 60.4082 79.7642 58.9071 74.1618Z" fill="#949594"/>
<path d="M83.3046 82.5324L84.9351 88.6177L78.8498 90.2483C79.1876 87.259 80.814 84.4421 83.3046 82.5324Z" fill="#BDBDBD"/>
<path d="M88.5846 102.237C85.5953 101.9 82.8043 100.37 80.9912 97.8533L86.98 96.2486L88.5846 102.237Z" fill="#BDBDBD"/>
<path d="M96.2155 100.193L94.6367 94.3005L100.625 92.6959C100.288 95.6852 98.6354 98.4055 96.2155 100.193Z" fill="#BDBDBD"/>
<path d="M101.267 90.4534C101.396 90.9364 101.113 91.4263 100.63 91.5557L93.386 93.4968L95.3271 100.741C95.4566 101.224 95.1737 101.714 94.6908 101.844L90.8271 102.879C90.3441 103.008 89.8542 102.725 89.7248 102.242L87.7836 94.998L80.5392 96.9391C80.0562 97.0686 79.5663 96.7857 79.4369 96.3027L78.4016 92.439C78.2722 91.9561 78.5551 91.4662 79.038 91.3368L86.2825 89.3956L84.3413 82.1512C84.2119 81.6682 84.4948 81.1783 84.9777 81.0489L88.8414 80.0136C89.3244 79.8842 89.8143 80.1671 89.9437 80.65L91.8849 87.8945L99.1293 85.9533C99.6123 85.8239 100.102 86.1068 100.232 86.5897L101.267 90.4534Z" fill="#949594"/>
<path d="M107.189 70.4388C103.808 71.3447 100.379 69.3648 99.4728 65.984C98.567 62.6033 100.547 59.174 103.928 58.2681C107.308 57.3623 110.738 59.3422 111.644 62.7229C112.549 66.1036 110.569 69.5329 107.189 70.4388Z" fill="#F7C249"/>
<path d="M132.572 89.8298C127.55 91.1756 122.406 88.2058 121.06 83.183C119.714 78.1602 122.684 73.0162 127.707 71.6704C132.729 70.3245 137.873 73.2944 139.219 78.3172C140.662 83.3141 137.692 88.458 132.572 89.8298Z" fill="#949594"/>
<path d="M133.161 59.9594C130.747 60.6065 128.297 59.1923 127.65 56.7775C127.003 54.3626 128.417 51.9131 130.832 51.2661C133.247 50.6191 135.696 52.0333 136.343 54.4481C136.99 56.8629 135.576 59.3124 133.161 59.9594Z" fill="#8EB999"/>
<path d="M145.654 67.172C143.239 67.819 140.789 66.4048 140.142 63.99C139.495 61.5752 140.909 59.1257 143.324 58.4786C145.739 57.8316 148.189 59.2458 148.836 61.6606C149.457 63.9788 148.068 66.5249 145.654 67.172Z" fill="#5095C9"/>
<path d="M140.374 47.4671C137.959 48.1142 135.509 46.7 134.862 44.2851C134.215 41.8703 135.63 39.4208 138.044 38.7738C140.459 38.1267 142.909 39.541 143.556 41.9558C144.203 44.3706 142.789 46.8201 140.374 47.4671Z" fill="#F7C249"/>
<path d="M152.866 54.6795C150.451 55.3266 148.002 53.9124 147.355 51.4975C146.708 49.0827 148.122 46.6332 150.537 45.9862C152.951 45.3391 155.401 46.7534 156.048 49.1682C156.695 51.583 155.281 54.0325 152.866 54.6795Z" fill="#DB5D5F"/>
</g>
<defs>
<radialGradient id="paint0_radial_35_1680" cx="0" cy="0" r="1" gradientUnits="userSpaceOnUse" gradientTransform="translate(119.006 105.889) scale(73.9758)">
<stop offset="0.5549" stop-color="#44B099"/>
<stop offset="1" stop-color="white"/>
</radialGradient>
<radialGradient id="paint1_radial_35_1680" cx="0" cy="0" r="1" gradientUnits="userSpaceOnUse" gradientTransform="translate(74.3629 74.5536) scale(73.9758 73.9758)">
<stop offset="0.5549" stop-color="#44B099"/>
<stop offset="1" stop-color="white"/>
</radialGradient>
<clipPath id="clip0_35_1680">
<rect width="124.4" height="82.7" fill="white" transform="translate(39 55.8916) rotate(-15)"/>
</clipPath>
</defs>
</svg>
