<svg width="188" height="202" viewBox="0 0 188 202" fill="none" xmlns="http://www.w3.org/2000/svg">
<g opacity="0.5">
<path d="M143.728 200.724C193.092 200.724 233.11 160.692 233.11 111.311C233.11 61.9297 193.092 21.8982 143.728 21.8982C94.3631 21.8982 54.3452 61.9297 54.3452 111.311C54.3452 160.692 94.3631 200.724 143.728 200.724Z" fill="url(#paint0_radial_35_1668)"/>
</g>
<g opacity="0.5">
<path d="M89.8125 162.899C139.177 162.899 179.195 122.868 179.195 73.4865C179.195 24.1051 139.177 -15.9264 89.8125 -15.9264C40.448 -15.9264 0.430176 24.1051 0.430176 73.4865C0.430176 122.868 40.448 162.899 89.8125 162.899Z" fill="url(#paint1_radial_35_1668)"/>
</g>
<path d="M68.9196 5.78958C64.3333 21.7962 78.2961 38.9244 73.2002 54.829C70.5503 63.0872 63.3141 69.0005 55.874 73.1806C48.3321 77.4626 40.1786 80.6232 33.3501 85.9248C27.0312 90.8185 22.1391 97.5474 20.2026 105.296C18.2662 113.044 19.5911 121.608 24.4832 127.929C29.681 134.76 38.1403 138.023 45.6822 142.203C59.2373 149.645 70.7541 160.554 84.2073 168.099C97.7625 175.643 114.885 179.518 128.44 172.075C142.097 164.531 147.906 148.014 151.27 132.823C153.206 123.953 154.939 114.676 160.748 107.641C165.029 102.543 171.144 99.2806 176.953 95.9162C184.291 91.7361 191.425 87.2501 198.458 82.4583C208.14 75.8314 217.618 68.3888 223.53 58.2954C229.339 48.2021 230.868 34.7443 224.345 24.9568C221.593 20.8786 217.618 17.5142 216.192 12.8243C214.969 8.84818 215.886 4.56615 215.988 0.386072C216.293 -7.05651 214.357 -14.601 209.771 -20.4124C205.184 -26.2237 197.744 -29.894 190.406 -29.2823C181.539 -28.5686 174.405 -22.2475 167.271 -17.0479C160.136 -11.8483 150.76 -7.46432 142.708 -10.9307C100.82 -29.0784 74.2193 -12.8678 68.9196 5.78958Z" fill="#FB5656"/>
<path opacity="0.9" d="M108.871 9.1541C103.062 13.0283 96.1316 14.5576 89.405 16.0869C79.417 18.3299 69.5309 20.5728 59.5429 22.8158C50.3703 24.8549 40.1784 27.6076 35.2864 35.6619C28.0502 47.4885 35.4902 65.6361 25.4003 75.2197C22.9543 77.5647 19.7948 78.89 17.043 80.9291C11.3356 85.2111 8.07417 92.5518 8.7876 99.6885C9.39911 106.825 13.8835 113.452 20.3044 116.613C34.1653 123.647 53.5297 114.676 65.3523 124.667C70.652 129.153 72.7923 136.494 73.2 143.426C73.6077 150.359 72.6904 157.394 73.0981 164.327C73.5057 171.769 76.1556 179.824 82.6784 183.392C90.9338 187.878 101.228 182.882 107.75 176.255C114.273 169.628 119.165 161.166 127.013 155.967C133.739 151.583 141.893 150.155 149.843 148.626C157.588 147.097 165.232 145.363 172.876 143.426C180.112 141.591 187.552 139.45 193.464 134.862C202.84 127.522 206.713 115.287 209.261 103.665C210.688 97.2416 211.911 90.5127 215.886 85.2111C218.332 81.9486 221.797 79.5018 224.956 76.9529C232.396 70.8357 239.021 63.1893 242.079 54.0135C245.136 44.8377 243.913 33.9287 237.39 26.792C231.377 20.267 222.205 17.9221 214.663 13.2322C206.407 8.13457 200.19 0.284178 193.158 -6.44473C183.17 -16.0283 170.736 -23.5729 156.977 -25.2041C145.358 -26.5295 132.618 -23.0631 124.261 -14.601C117.433 -7.46426 117.942 3.13886 108.871 9.1541Z" fill="#44B099"/>
<path d="M135.064 21.7963C140.772 22.4081 145.97 23.6315 150.556 25.5686C155.142 27.5057 159.015 29.9526 162.175 33.0112C165.334 36.0698 167.576 39.5362 169.105 43.6143C170.532 47.5905 171.042 51.9745 170.634 56.6643C170.328 60.1307 169.309 63.0873 167.78 65.6362C166.251 68.185 164.417 70.428 162.277 72.3651C160.136 74.3022 157.894 76.0354 155.448 77.4627C153.104 78.8901 150.862 80.2155 148.722 81.4389C146.683 82.6623 144.951 83.7838 143.524 85.0073C142.097 86.1287 141.383 87.3522 141.18 88.6776L140.67 93.1635C140.568 94.285 139.651 94.9987 138.53 94.8967L116.617 92.6537C115.496 92.5518 114.783 91.6342 114.885 90.5127L115.802 81.6428C116.006 79.8077 116.617 78.1764 117.738 76.6471C118.859 75.1178 120.286 73.6905 121.917 72.2631C123.548 70.9377 125.28 69.5104 127.115 68.287C128.949 66.9616 130.682 65.6362 132.313 64.2088C133.943 62.7815 135.37 61.2522 136.491 59.6209C137.612 57.9897 138.326 56.1545 138.53 54.1155C138.632 52.6881 138.632 51.3627 138.326 50.0373C138.02 48.712 137.51 47.4885 136.695 46.469C135.982 45.4495 134.963 44.5319 133.841 43.8182C132.72 43.1045 131.293 42.6967 129.765 42.4928C127.726 42.2889 125.994 42.4928 124.669 43.1045C123.344 43.7163 122.223 44.5319 121.407 45.6534C120.592 46.7749 119.981 48.1002 119.573 49.5276C119.165 51.0569 118.859 52.5862 118.758 54.1155C118.656 54.8291 118.656 55.4409 118.554 56.1545C118.452 57.276 117.534 58.0916 116.413 57.9897L92.4626 55.5428C91.4434 55.4409 90.73 54.6252 90.73 53.6057C90.73 53.1979 90.73 52.892 90.73 52.4842C90.73 51.5666 90.73 50.6491 90.8319 49.6295C91.3415 44.7358 92.8703 40.3518 95.3163 36.6815C97.7623 32.9092 101.024 29.8506 104.999 27.5057C108.973 25.0588 113.56 23.4276 118.758 22.51C123.548 21.2866 129.153 21.1846 135.064 21.7963Z" fill="white"/>
<path d="M135.37 128.745L113.152 126.4C112.031 126.298 111.317 125.381 111.419 124.259L113.56 103.767C113.662 102.645 114.579 101.932 115.7 102.033L137.918 104.378C139.039 104.48 139.753 105.398 139.651 106.519L137.51 127.012C137.408 128.133 136.491 128.847 135.37 128.745Z" fill="white"/>
<defs>
<radialGradient id="paint0_radial_35_1668" cx="0" cy="0" r="1" gradientUnits="userSpaceOnUse" gradientTransform="translate(143.749 111.305) scale(89.3569 89.3874)">
<stop offset="0.5549" stop-color="#44B099"/>
<stop offset="1" stop-color="white"/>
</radialGradient>
<radialGradient id="paint1_radial_35_1668" cx="0" cy="0" r="1" gradientUnits="userSpaceOnUse" gradientTransform="translate(89.8241 73.4408) scale(89.3569 89.3874)">
<stop offset="0.5549" stop-color="#44B099"/>
<stop offset="1" stop-color="white"/>
</radialGradient>
</defs>
</svg>
